<mxfile host="app.diagrams.net" agent="Mozilla/5.0 (Windows NT 10.0; Win64; x64; rv:128.0) Gecko/20100101 Firefox/128.0" version="28.2.8">
  <diagram id="C5RBs43oDa-KdzZeNtuy" name="Page-1">
    <mxGraphModel dx="1426" dy="1948" grid="1" gridSize="10" guides="1" tooltips="1" connect="1" arrows="1" fold="1" page="1" pageScale="1" pageWidth="827" pageHeight="1169" math="0" shadow="0">
      <root>
        <mxCell id="WIyWlLk6GJQsqaUBKTNV-0" />
        <mxCell id="WIyWlLk6GJQsqaUBKTNV-1" parent="WIyWlLk6GJQsqaUBKTNV-0" />
        <mxCell id="WIyWlLk6GJQsqaUBKTNV-2" value="" style="rounded=0;html=1;jettySize=auto;orthogonalLoop=1;fontSize=11;endArrow=block;endFill=0;endSize=8;strokeWidth=1;shadow=0;labelBackgroundColor=none;edgeStyle=orthogonalEdgeStyle;" parent="WIyWlLk6GJQsqaUBKTNV-1" source="WIyWlLk6GJQsqaUBKTNV-3" target="WIyWlLk6GJQsqaUBKTNV-6" edge="1">
          <mxGeometry relative="1" as="geometry" />
        </mxCell>
        <mxCell id="WIyWlLk6GJQsqaUBKTNV-3" value="&lt;p style=&quot;font-size: 14px;&quot;&gt;&lt;font face=&quot;Work sans&quot; style=&quot;font-size: 14px;&quot;&gt;Examiner :&lt;/font&gt;&lt;/p&gt;&lt;p style=&quot;font-size: 14px;&quot;&gt;&lt;/p&gt;&lt;ul style=&quot;font-size: 14px;&quot;&gt;&lt;li style=&quot;&quot;&gt;&lt;font face=&quot;Lpvtxa64hUqC9Te6o_X-&quot; style=&quot;font-size: 14px;&quot;&gt;libellé d&#39;activité &lt;br&gt;&lt;/font&gt;&lt;/li&gt;&lt;li style=&quot;&quot;&gt;&lt;font face=&quot;Lpvtxa64hUqC9Te6o_X-&quot; style=&quot;font-size: 14px;&quot;&gt;variables annexes&lt;br&gt;&lt;/font&gt;&lt;/li&gt;&lt;li style=&quot;&quot;&gt;&lt;font face=&quot;Lpvtxa64hUqC9Te6o_X-&quot; style=&quot;font-size: 14px;&quot;&gt;NAF rev 2&lt;/font&gt;&lt;/li&gt;&lt;li style=&quot;&quot;&gt;&lt;font face=&quot;Lpvtxa64hUqC9Te6o_X-&quot; style=&quot;font-size: 14px;&quot;&gt;suggestions NAF 2025&lt;br&gt;&lt;/font&gt;&lt;/li&gt;&lt;/ul&gt;&lt;p&gt;&lt;/p&gt;" style="rounded=1;whiteSpace=wrap;html=1;fontSize=12;glass=0;strokeWidth=1;shadow=0;fillColor=#ffe6cc;strokeColor=#d79b00;" parent="WIyWlLk6GJQsqaUBKTNV-1" vertex="1">
          <mxGeometry x="90" width="200" height="110" as="geometry" />
        </mxCell>
        <mxCell id="WIyWlLk6GJQsqaUBKTNV-4" value="&lt;font style=&quot;font-size: 14px;&quot;&gt;Oui&lt;/font&gt;" style="rounded=0;html=1;jettySize=auto;orthogonalLoop=1;fontSize=11;endArrow=block;endFill=0;endSize=8;strokeWidth=1;shadow=0;labelBackgroundColor=none;edgeStyle=orthogonalEdgeStyle;exitX=0.5;exitY=1;exitDx=0;exitDy=0;exitPerimeter=0;entryX=0.5;entryY=0;entryDx=0;entryDy=0;" parent="WIyWlLk6GJQsqaUBKTNV-1" source="WIyWlLk6GJQsqaUBKTNV-6" target="zTkiKsxzpAYJPQyl72WQ-3" edge="1">
          <mxGeometry x="0.2517" y="20" relative="1" as="geometry">
            <mxPoint as="offset" />
            <mxPoint x="189.5" y="170" as="sourcePoint" />
            <mxPoint x="190" y="390" as="targetPoint" />
            <Array as="points" />
          </mxGeometry>
        </mxCell>
        <mxCell id="WIyWlLk6GJQsqaUBKTNV-5" value="&lt;font style=&quot;font-size: 14px;&quot;&gt;Non&lt;/font&gt;" style="edgeStyle=orthogonalEdgeStyle;rounded=0;html=1;jettySize=auto;orthogonalLoop=1;fontSize=11;endArrow=block;endFill=0;endSize=8;strokeWidth=1;shadow=0;labelBackgroundColor=none;" parent="WIyWlLk6GJQsqaUBKTNV-1" source="WIyWlLk6GJQsqaUBKTNV-6" edge="1">
          <mxGeometry x="0.0834" y="32" relative="1" as="geometry">
            <mxPoint as="offset" />
            <mxPoint x="320" y="252" as="sourcePoint" />
            <mxPoint x="396.96" y="252.13" as="targetPoint" />
            <Array as="points" />
          </mxGeometry>
        </mxCell>
        <mxCell id="WIyWlLk6GJQsqaUBKTNV-6" value="&lt;div style=&quot;font-size: 14px;&quot;&gt;&lt;span style=&quot;font-family: &amp;quot;Work sans&amp;quot;; background-color: initial;&quot;&gt;code NAF rev 2 correct&lt;br&gt;&lt;/span&gt;&lt;/div&gt;&lt;div style=&quot;font-size: 14px;&quot;&gt;&lt;font face=&quot;Work sans&quot;&gt;OU&lt;br&gt;&lt;/font&gt;&lt;span style=&quot;font-family: &amp;quot;Work sans&amp;quot;; background-color: initial;&quot;&gt;au moins un code NAF 2025 correct&lt;/span&gt;&lt;/div&gt;&lt;div style=&quot;font-size: 14px;&quot;&gt;&lt;span style=&quot;font-family: &amp;quot;Work sans&amp;quot;; background-color: initial;&quot;&gt;&amp;nbsp;parmi les suggestions&lt;/span&gt;&lt;br&gt;&lt;/div&gt;" style="rhombus;whiteSpace=wrap;html=1;shadow=0;fontFamily=Helvetica;fontSize=12;align=center;strokeWidth=1;spacing=6;spacingTop=-4;fillColor=#ffe6cc;strokeColor=#d79b00;" parent="WIyWlLk6GJQsqaUBKTNV-1" vertex="1">
          <mxGeometry x="63.050000000000004" y="152.54" width="253.91" height="200.2" as="geometry" />
        </mxCell>
        <mxCell id="zTkiKsxzpAYJPQyl72WQ-2" value="&lt;font style=&quot;font-size: 14px;&quot;&gt;Oui&lt;/font&gt;" style="rounded=0;html=1;jettySize=auto;orthogonalLoop=1;fontSize=11;endArrow=block;endFill=0;endSize=8;strokeWidth=1;shadow=0;labelBackgroundColor=none;edgeStyle=orthogonalEdgeStyle;exitX=0.5;exitY=1;exitDx=0;exitDy=0;exitPerimeter=0;entryX=0.5;entryY=0;entryDx=0;entryDy=0;" parent="WIyWlLk6GJQsqaUBKTNV-1" source="zTkiKsxzpAYJPQyl72WQ-3" target="zTkiKsxzpAYJPQyl72WQ-10" edge="1">
          <mxGeometry x="0.2517" y="20" relative="1" as="geometry">
            <mxPoint as="offset" />
            <mxPoint x="189.5" y="370" as="sourcePoint" />
            <mxPoint x="190" y="570" as="targetPoint" />
            <Array as="points" />
          </mxGeometry>
        </mxCell>
        <mxCell id="zTkiKsxzpAYJPQyl72WQ-3" value="&lt;font size=&quot;1&quot; face=&quot;Work sans&quot;&gt;&lt;span style=&quot;font-size: 14px;&quot;&gt;Choix évident ?&lt;br&gt;&lt;/span&gt;&lt;/font&gt;" style="rhombus;whiteSpace=wrap;html=1;shadow=0;fontFamily=Helvetica;fontSize=12;align=center;strokeWidth=1;spacing=6;spacingTop=-4;fillColor=#ffe6cc;strokeColor=#d79b00;" parent="WIyWlLk6GJQsqaUBKTNV-1" vertex="1">
          <mxGeometry x="87.5" y="400" width="205" height="130" as="geometry" />
        </mxCell>
        <mxCell id="zTkiKsxzpAYJPQyl72WQ-7" value="&lt;font style=&quot;font-size: 14px;&quot;&gt;Non&lt;/font&gt;" style="edgeStyle=orthogonalEdgeStyle;rounded=0;html=1;jettySize=auto;orthogonalLoop=1;fontSize=11;endArrow=block;endFill=0;endSize=8;strokeWidth=1;shadow=0;labelBackgroundColor=none;" parent="WIyWlLk6GJQsqaUBKTNV-1" edge="1">
          <mxGeometry x="-0.0625" y="35" relative="1" as="geometry">
            <mxPoint y="1" as="offset" />
            <mxPoint x="292.5" y="464.5" as="sourcePoint" />
            <mxPoint x="372.5" y="464.5" as="targetPoint" />
            <Array as="points">
              <mxPoint x="302.5" y="464" />
              <mxPoint x="302.5" y="464" />
            </Array>
          </mxGeometry>
        </mxCell>
        <mxCell id="zTkiKsxzpAYJPQyl72WQ-9" value="&lt;p style=&quot;font-size: 14px;&quot;&gt;&lt;font style=&quot;font-size: 14px;&quot; face=&quot;Work sans&quot;&gt;Examiner :&lt;/font&gt;&lt;/p&gt;&lt;ul style=&quot;font-size: 14px;&quot;&gt;&lt;li style=&quot;&quot;&gt;&lt;font style=&quot;font-size: 14px;&quot; face=&quot;MjLJa9koIwfA0tVDng4r&quot;&gt;&lt;span style=&quot;font-family: Helvetica;&quot;&gt;&lt;font style=&quot;font-size: 14px;&quot; face=&quot;Work sans&quot;&gt;table de correspondance&lt;br&gt;&lt;/font&gt;&lt;/span&gt;&lt;/font&gt;&lt;/li&gt;&lt;li style=&quot;&quot;&gt;&lt;font style=&quot;font-size: 14px;&quot; face=&quot;MjLJa9koIwfA0tVDng4r&quot;&gt;description sous-classes &lt;/font&gt;&lt;span style=&quot;background-color: initial;&quot;&gt;&lt;font style=&quot;font-size: 14px;&quot; face=&quot;MjLJa9koIwfA0tVDng4r&quot;&gt;(notes explicatives)&lt;br&gt;&lt;/font&gt;&lt;/span&gt;&lt;/li&gt;&lt;/ul&gt;&lt;p&gt;&lt;/p&gt;" style="rounded=1;whiteSpace=wrap;html=1;fontSize=12;glass=0;strokeWidth=1;shadow=0;fillColor=#ffe6cc;strokeColor=#d79b00;" parent="WIyWlLk6GJQsqaUBKTNV-1" vertex="1">
          <mxGeometry x="372.5" y="415" width="200" height="100" as="geometry" />
        </mxCell>
        <mxCell id="zTkiKsxzpAYJPQyl72WQ-10" value="&lt;p style=&quot;font-size: 14px;&quot;&gt;&lt;font style=&quot;font-size: 14px;&quot; face=&quot;Work sans&quot;&gt;Attribution code NAF 2025&lt;br&gt;&lt;/font&gt;&lt;/p&gt;&lt;p&gt;&lt;/p&gt;" style="rounded=1;whiteSpace=wrap;html=1;fontSize=12;glass=0;strokeWidth=1;shadow=0;fillColor=#ffe6cc;strokeColor=#d79b00;" parent="WIyWlLk6GJQsqaUBKTNV-1" vertex="1">
          <mxGeometry x="100" y="690" width="180" height="60.5" as="geometry" />
        </mxCell>
        <mxCell id="zTkiKsxzpAYJPQyl72WQ-11" value="" style="sketch=0;pointerEvents=1;shadow=0;dashed=0;html=1;strokeColor=#82b366;fillColor=#d5e8d4;labelPosition=center;verticalLabelPosition=bottom;verticalAlign=top;outlineConnect=0;align=center;shape=mxgraph.office.users.approver;" parent="WIyWlLk6GJQsqaUBKTNV-1" vertex="1">
          <mxGeometry x="168.51" y="-100" width="59" height="55" as="geometry" />
        </mxCell>
        <mxCell id="zTkiKsxzpAYJPQyl72WQ-12" value="&lt;h2&gt;&lt;font style=&quot;font-size: 16px;&quot; face=&quot;Work sans&quot;&gt;Annotateur expert APE&lt;br&gt;&lt;/font&gt;&lt;/h2&gt;" style="text;html=1;align=center;verticalAlign=middle;resizable=0;points=[];autosize=1;strokeColor=none;fillColor=none;" parent="WIyWlLk6GJQsqaUBKTNV-1" vertex="1">
          <mxGeometry x="97.50999999999999" y="-145" width="190" height="60" as="geometry" />
        </mxCell>
        <mxCell id="zTkiKsxzpAYJPQyl72WQ-13" value="" style="rounded=0;html=1;jettySize=auto;orthogonalLoop=1;fontSize=11;endArrow=block;endFill=0;endSize=8;strokeWidth=1;shadow=0;labelBackgroundColor=none;edgeStyle=orthogonalEdgeStyle;" parent="WIyWlLk6GJQsqaUBKTNV-1" edge="1">
          <mxGeometry relative="1" as="geometry">
            <mxPoint x="192" y="-40" as="sourcePoint" />
            <mxPoint x="192" as="targetPoint" />
          </mxGeometry>
        </mxCell>
        <mxCell id="zTkiKsxzpAYJPQyl72WQ-14" value="&lt;p style=&quot;font-size: 14px;&quot;&gt;&lt;font face=&quot;Work sans&quot;&gt;&lt;font style=&quot;font-size: 14px;&quot;&gt;Recherche du code correct en NAF 2025&lt;/font&gt; dans la NAF&lt;br&gt;&lt;/font&gt;&lt;/p&gt;&lt;p&gt;&lt;/p&gt;" style="rounded=1;whiteSpace=wrap;html=1;fontSize=12;glass=0;strokeWidth=1;shadow=0;fillColor=#ffe6cc;strokeColor=#d79b00;" parent="WIyWlLk6GJQsqaUBKTNV-1" vertex="1">
          <mxGeometry x="396.96" y="220.01" width="313.04" height="65.25" as="geometry" />
        </mxCell>
        <mxCell id="z4JPeLM6ONAQ2ik3Qc_F-0" value="&lt;p style=&quot;font-size: 14px;&quot;&gt;&lt;font style=&quot;font-size: 14px;&quot; face=&quot;Work sans&quot;&gt;Attribution code NAF 2025&lt;br&gt;&lt;/font&gt;&lt;/p&gt;" style="rounded=1;whiteSpace=wrap;html=1;fontSize=12;glass=0;strokeWidth=1;shadow=0;fillColor=#ffe6cc;strokeColor=#d79b00;" parent="WIyWlLk6GJQsqaUBKTNV-1" vertex="1">
          <mxGeometry x="870" y="339.5" width="180" height="60.5" as="geometry" />
        </mxCell>
        <mxCell id="z4JPeLM6ONAQ2ik3Qc_F-2" value="" style="rounded=0;html=1;jettySize=auto;orthogonalLoop=1;fontSize=11;endArrow=block;endFill=0;endSize=8;strokeWidth=1;shadow=0;labelBackgroundColor=none;edgeStyle=orthogonalEdgeStyle;entryX=0;entryY=0.5;entryDx=0;entryDy=0;" parent="WIyWlLk6GJQsqaUBKTNV-1" target="z4JPeLM6ONAQ2ik3Qc_F-0" edge="1">
          <mxGeometry relative="1" as="geometry">
            <mxPoint x="800" y="370" as="sourcePoint" />
            <mxPoint x="770" y="400" as="targetPoint" />
          </mxGeometry>
        </mxCell>
        <mxCell id="z4JPeLM6ONAQ2ik3Qc_F-3" value="" style="endArrow=none;html=1;rounded=0;" parent="WIyWlLk6GJQsqaUBKTNV-1" edge="1">
          <mxGeometry width="50" height="50" relative="1" as="geometry">
            <mxPoint x="572.5" y="464.5" as="sourcePoint" />
            <mxPoint x="800" y="465" as="targetPoint" />
          </mxGeometry>
        </mxCell>
        <mxCell id="z4JPeLM6ONAQ2ik3Qc_F-4" value="" style="endArrow=none;html=1;rounded=0;" parent="WIyWlLk6GJQsqaUBKTNV-1" edge="1">
          <mxGeometry width="50" height="50" relative="1" as="geometry">
            <mxPoint x="710" y="252.14" as="sourcePoint" />
            <mxPoint x="800" y="252" as="targetPoint" />
          </mxGeometry>
        </mxCell>
        <mxCell id="z4JPeLM6ONAQ2ik3Qc_F-6" value="" style="endArrow=none;html=1;rounded=0;" parent="WIyWlLk6GJQsqaUBKTNV-1" edge="1">
          <mxGeometry width="50" height="50" relative="1" as="geometry">
            <mxPoint x="800" y="465" as="sourcePoint" />
            <mxPoint x="800" y="370" as="targetPoint" />
          </mxGeometry>
        </mxCell>
        <mxCell id="z4JPeLM6ONAQ2ik3Qc_F-7" value="" style="endArrow=none;html=1;rounded=0;" parent="WIyWlLk6GJQsqaUBKTNV-1" edge="1">
          <mxGeometry width="50" height="50" relative="1" as="geometry">
            <mxPoint x="800" y="370" as="sourcePoint" />
            <mxPoint x="800" y="250" as="targetPoint" />
          </mxGeometry>
        </mxCell>
      </root>
    </mxGraphModel>
  </diagram>
</mxfile>
